<?xml version="1.0" encoding="UTF-8"?>
<!DOCTYPE svg PUBLIC "-//W3C//DTD SVG 1.1//EN" "http://www.w3.org/Graphics/SVG/1.1/DTD/svg11.dtd">
<!-- Creator: CorelDRAW X7 -->
<svg xmlns="http://www.w3.org/2000/svg" xml:space="preserve" width="100px" height="100px" version="1.1" style="shape-rendering:geometricPrecision; text-rendering:geometricPrecision; image-rendering:optimizeQuality; fill-rule:evenodd; clip-rule:evenodd"
viewBox="0 0 100 100"
 xmlns:xlink="http://www.w3.org/1999/xlink">
 <defs>
  <style type="text/css">
   <![CDATA[
    .fil0 {fill:#ED3237}
   ]]>
  </style>
 </defs>
 <g id="Layer_x0020_1">
  <metadata id="CorelCorpID_0Corel-Layer"/>
  <path class="fil0" d="M16 99l-11 -10 11 -12c-13,-17 -13,-40 2,-56 14,-16 38,-19 55,-8l11 -12 11 10 -11 12c7,9 10,21 9,32 -2,1 -4,3 -5,6 -1,3 -2,6 -2,10 0,1 0,2 0,3 -1,2 -2,3 -4,5 -14,16 -38,19 -55,8l-11 12zm15 -66c9,-11 26,-12 36,-2 11,9 12,26 2,36 -9,11 -26,12 -36,2 -11,-9 -12,-26 -2,-36z"/>
 </g>
</svg>
