<?xml version="1.0" encoding="UTF-8"?>
<!DOCTYPE svg PUBLIC "-//W3C//DTD SVG 1.1//EN" "http://www.w3.org/Graphics/SVG/1.1/DTD/svg11.dtd">
<!-- Creator: CorelDRAW X7 -->
<svg xmlns="http://www.w3.org/2000/svg" xml:space="preserve" width="803px" height="803px" version="1.1" style="shape-rendering:geometricPrecision; text-rendering:geometricPrecision; image-rendering:optimizeQuality; fill-rule:evenodd; clip-rule:evenodd"
viewBox="0 0 803 803"
 xmlns:xlink="http://www.w3.org/1999/xlink">
 <defs>
  <style type="text/css">
   <![CDATA[
    .fil0 {fill:#EE312A}
   ]]>
  </style>
 </defs>
 <g id="Layer_x0020_1">
  <metadata id="CorelCorpID_0Corel-Layer"/>
  <path class="fil0" d="M402 3c96,0 184,35 252,91l39 -39 55 55 -39 39c56,68 91,156 91,253 0,6 -1,13 -1,20 -6,4 -12,8 -17,14 -18,18 -26,45 -26,78 0,19 3,36 9,51 -63,138 -202,235 -363,235 -97,0 -185,-35 -253,-91l-39 39 -55 -55 39 -39c-56,-68 -91,-156 -91,-252 0,-220 179,-399 399,-399zm0 77c177,0 321,144 321,322 0,177 -144,321 -321,321 -178,0 -322,-144 -322,-321 0,-178 144,-322 322,-322z"/>
 </g>
</svg>
