<?xml version="1.0" encoding="UTF-8"?>
<!DOCTYPE svg PUBLIC "-//W3C//DTD SVG 1.1//EN" "http://www.w3.org/Graphics/SVG/1.1/DTD/svg11.dtd">
<!-- Creator: CorelDRAW X7 -->
<svg xmlns="http://www.w3.org/2000/svg" xml:space="preserve" width="1488px" height="1700px" version="1.1" style="shape-rendering:geometricPrecision; text-rendering:geometricPrecision; image-rendering:optimizeQuality; fill-rule:evenodd; clip-rule:evenodd"
viewBox="0 0 1488 1700"
 xmlns:xlink="http://www.w3.org/1999/xlink">
 <defs>
  <style type="text/css">
   <![CDATA[
    .str0 {stroke:black;stroke-width:15.8532;stroke-linecap:round}
    .fil2 {fill:none}
    .fil12 {fill:black}
    .fil31 {fill:#1D1B25}
    .fil24 {fill:#3A3A3F}
    .fil15 {fill:#3B3B3F}
    .fil27 {fill:#67666B}
    .fil17 {fill:#7D7D7D}
    .fil30 {fill:#7F0407}
    .fil7 {fill:#817F7D}
    .fil25 {fill:#8E8D92}
    .fil9 {fill:#999999}
    .fil35 {fill:#A2A1A4}
    .fil6 {fill:#B01318}
    .fil20 {fill:#B01B20}
    .fil3 {fill:#C0BAB2}
    .fil13 {fill:silver}
    .fil5 {fill:#DBD9D7}
    .fil4 {fill:#DCD8D9}
    .fil36 {fill:white;fill-opacity:0.043137}
    .fil0 {fill:#7D7D7D;fill-opacity:0.047059}
    .fil8 {fill:#C0BAB2;fill-opacity:0.117647}
    .fil1 {fill:#7D7D7D;fill-opacity:0.125490}
    .fil34 {fill:#7D7D7D;fill-opacity:0.137255}
    .fil11 {fill:#77706A;fill-opacity:0.160784}
    .fil19 {fill:#7F0A0D;fill-opacity:0.200000}
    .fil37 {fill:white;fill-opacity:0.211765}
    .fil22 {fill:#7F0A0D;fill-opacity:0.262745}
    .fil18 {fill:white;fill-opacity:0.309804}
    .fil16 {fill:#7D7D7D;fill-opacity:0.368627}
    .fil28 {fill:#3A3A3F;fill-opacity:0.380392}
    .fil10 {fill:#77706A;fill-opacity:0.400000}
    .fil21 {fill:#7F0A0D;fill-opacity:0.403922}
    .fil33 {fill:#7F0407;fill-opacity:0.423529}
    .fil26 {fill:#C0BAB2;fill-opacity:0.470588}
    .fil14 {fill:silver;fill-opacity:0.490196}
    .fil29 {fill:#67666B;fill-opacity:0.521569}
    .fil32 {fill:#7F0407;fill-opacity:0.650980}
    .fil23 {fill:#7F0A0D;fill-opacity:0.650980}
   ]]>
  </style>
 </defs>
 <g id="Layer_x0020_1">
  <metadata id="CorelCorpID_0Corel-Layer"/>
  <g id="_2247788006208">
   <path class="fil0" d="M1032 1674c-47,-92 -155,-207 -252,-243 -39,-15 -82,-23 -121,-10 -39,13 -71,54 -62,94 4,19 16,35 22,52 6,18 5,42 -11,52 -12,7 -27,4 -40,1 -57,-18 -103,-57 -153,-90 -50,-33 -109,-60 -167,-48 -27,6 -55,25 -58,53 -2,18 8,38 0,55 -11,25 -46,23 -74,24 -44,1 -88,22 -116,56m1032 4l0 0 0 0z"/>
   <path class="fil0" d="M1058 1631c9,-65 23,-134 68,-183 24,-26 63,-45 94,-28 17,10 27,28 36,45 6,12 11,23 17,34 3,4 5,9 10,11 8,3 15,-2 21,-7 20,-17 39,-35 62,-48 23,-13 50,-21 75,-14 25,6 47,29 47,55 0,15 -7,29 -14,42 -21,36 -44,70 -71,101m-345 -8l0 0 0 0z"/>
   <path class="fil1" d="M1240 1271c-153,1 -304,63 -456,43 -52,-6 -102,-22 -151,-40 -128,-44 -260,-105 -332,-219 -8,-12 -15,-25 -17,-40 -2,-17 3,-34 10,-49 18,-42 46,-80 80,-109 15,-13 31,-24 39,-41 13,-27 3,-60 -15,-84 -17,-24 -42,-41 -63,-63 -50,-49 -79,-120 -78,-190 1,-71 31,-140 83,-189 20,-20 46,-37 75,-38 58,-3 97,56 124,108 5,8 10,17 18,20 7,3 15,1 21,-2 21,-9 35,-28 52,-43 17,-14 42,-24 61,-12 9,5 14,14 19,23 31,59 42,138 102,168 71,36 157,-24 235,-7 76,17 116,99 141,173 61,177 104,363 97,550m-45 41l0 0 0 0z"/>
   <path class="fil1" d="M1333 1352c0,-16 13,-28 29,-28 15,0 28,12 28,28 0,16 -13,29 -28,29 -16,0 -29,-13 -29,-29z"/>
   <path class="fil1" d="M1420 104c0,-14 11,-25 24,-25 14,0 25,11 25,25 0,13 -11,24 -25,24 -13,0 -24,-11 -24,-24z"/>
   <path class="fil1" d="M1306 871c0,-12 9,-21 20,-21 11,0 20,9 20,21 0,11 -9,20 -20,20 -11,0 -20,-9 -20,-20z"/>
   <path class="fil1" d="M1337 960c0,-22 18,-40 41,-40 22,0 41,18 41,40 0,23 -19,41 -41,41 -23,0 -41,-18 -41,-41z"/>
   <path class="fil1" d="M127 1210c13,-31 49,-46 80,-33 32,13 46,49 33,80 -13,32 -49,46 -80,33 -31,-13 -46,-49 -33,-80z"/>
   <path class="fil1" d="M102 263c0,-9 7,-17 16,-17 9,0 17,8 17,17 0,9 -8,16 -17,16 -9,0 -16,-7 -16,-16z"/>
   <line class="fil2 str0" x1="1373" y1="1177" x2="244" y2= "156" />
   <g>
    <path class="fil3" d="M201 108c5,-19 -5,-41 -23,-51 -34,-19 -68,-38 -102,-57 3,10 9,19 15,28 12,18 24,37 36,55 4,6 8,12 14,16 6,5 24,15 32,17 11,3 19,4 29,6 2,1 -3,-6 -2,-7 0,-1 -2,-1 -1,0l2 -7zm0 0l0 0 0 0z"/>
   </g>
   <path class="fil4" d="M274 171c-40,-35 -83,-69 -126,-101 38,46 80,87 126,125l0 -24z"/>
   <g>
    <path class="fil5" d="M681 173c-2,3 0,7 3,10 3,3 7,4 10,4 9,2 19,2 27,5 9,3 18,10 20,19l1 -6c-3,-18 -17,-34 -35,-38l-26 6zm0 0l0 0 0 0z"/>
   </g>
   <path class="fil6" d="M693 170l11 -2c1,1 2,2 4,3 16,7 31,19 34,37l-1 2c-8,-21 -34,-23 -48,-40z"/>
   <g>
    <path class="fil7" d="M735 149c1,8 -5,15 -12,18 -7,3 -15,3 -23,4 -7,1 -15,3 -20,9 -3,-9 -5,-19 -7,-29 0,-1 -1,-3 0,-4 1,-1 3,-2 4,-2 17,-3 34,-3 51,-1l7 5zm0 0l0 0 0 0z"/>
   </g>
   <g>
    <path class="fil5" d="M391 279c2,-36 13,-71 31,-102 4,-7 9,-14 17,-19 7,-4 18,-4 24,2 3,3 5,8 6,13 3,9 5,17 8,26 2,8 6,16 13,17 7,1 12,-4 17,-9 29,-28 69,-44 109,-51 40,-8 81,-7 122,-7 1,-24 0,-48 -3,-71 -1,-5 -2,-10 -5,-13 -3,-2 -7,-3 -11,-3 -71,-8 -146,12 -204,54 -4,3 -8,6 -12,8 -17,5 -32,-10 -45,-22 -16,-15 -36,-29 -58,-27 -14,0 -27,7 -39,16 -37,28 -55,74 -71,118 9,-9 24,-11 36,-7 12,4 22,13 30,23 15,16 28,51 35,71 0,-4 -2,-23 -2,-28l2 11zm0 0l0 0 0 0z"/>
   </g>
   <path class="fil8" d="M708 145c12,-9 23,-19 30,-32 1,12 1,24 0,36 -12,0 -24,0 -36,0 2,-2 4,-3 6,-4z"/>
   <path class="fil8" d="M491 216c-3,-8 -5,-17 -7,-26 -6,-20 -9,-41 -16,-61 -4,-11 -9,-21 -14,-31 1,1 3,2 4,4 13,12 28,27 45,22 2,-1 4,-2 6,-3 -3,18 -5,37 -7,55 -2,13 -4,26 -5,39 -2,1 -4,1 -6,1z"/>
   <path class="fil8" d="M305 201c-5,1 -11,4 -15,8 16,-44 34,-90 71,-118 12,-9 25,-16 39,-16 0,0 1,0 1,0 -49,24 -79,74 -96,126z"/>
   <path class="fil6" d="M341 168c17,-27 51,-79 89,-72 16,3 48,32 58,50 11,18 14,3 33,-8 0,0 0,0 0,0 18,-9 44,-23 69,-33 18,-7 78,-16 98,-18 16,-1 32,-3 48,-3 1,8 1,15 2,23 -29,0 -58,0 -86,4 -83,12 -125,44 -138,55 -5,3 -13,11 -18,12 1,0 -2,-1 -4,-3 -3,-3 -5,-7 -7,-11 -10,-15 -20,-31 -39,-34 -15,-3 -29,2 -41,10 -26,19 -42,49 -55,78 -7,-7 -15,-12 -24,-16 -1,0 -3,0 -4,0 6,-12 13,-23 19,-34z"/>
   <g>
    <path class="fil9" d="M908 1155c-19,36 -39,76 -30,116 5,20 16,37 29,54 30,39 67,73 110,99 6,4 12,8 15,14 5,8 3,19 -1,28 -29,76 -135,113 -142,195 15,-5 31,-3 46,-5 15,-3 31,-12 33,-27 2,-7 0,-15 3,-22 6,-13 24,-12 37,-9 15,-60 67,-102 111,-145 5,-6 10,-11 12,-18 7,-24 -25,-39 -40,-60 -14,-18 -13,-43 -7,-65 5,-21 15,-42 17,-65 5,-45 -21,-89 -55,-118 -17,-14 -37,-26 -59,-28 -22,-1 -46,11 -53,31l-26 25zm0 0l0 0 0 0z"/>
   </g>
   <path class="fil10" d="M1039 1451c-2,4 -4,8 -7,12 2,-5 3,-11 3,-16 1,2 3,3 4,4z"/>
   <path class="fil11" d="M939 1608c32,-41 81,-65 114,-105 8,-9 14,-19 20,-29 14,-2 25,-17 14,-31 0,0 0,0 0,0 6,-21 9,-43 5,-65 16,19 46,34 39,57 -2,7 -7,12 -12,18 -44,43 -96,85 -111,145 -13,-3 -31,-4 -37,9 -3,7 -1,15 -3,22 -2,15 -18,24 -33,27 -10,1 -20,1 -30,2 12,-17 22,-35 34,-50z"/>
   <path class="fil12" d="M969 1617c0,4 0,8 -1,12 -2,15 -18,24 -33,27 -15,2 -31,0 -46,5 2,-23 12,-43 26,-61 17,8 35,14 54,17z"/>
   <g>
    <path class="fil9" d="M525 885c-33,30 -51,75 -49,120 -51,-19 -101,-38 -152,-57 -13,-5 -31,-9 -39,3 -3,6 -3,13 -2,20 5,53 11,108 35,157 24,48 71,89 125,91 20,-37 -10,-90 -52,-91 -8,0 -16,1 -24,-2 -9,-5 -13,-16 -16,-26 -10,-36 -19,-72 -26,-108 25,2 44,23 61,41 40,42 88,75 141,98 36,16 78,26 114,9 46,-23 61,-83 51,-133 -7,-36 -24,-71 -51,-95 -28,-24 -66,-36 -102,-29l-14 2zm0 0l0 0 0 0z"/>
   </g>
   <path class="fil10" d="M317 1126c-5,-24 -11,-48 -14,-72 -2,-18 -5,-38 -2,-57 0,-2 1,-7 1,-10 1,1 2,1 3,1 6,1 13,3 20,6 8,36 16,71 26,106 3,10 7,21 16,26 8,3 16,2 24,2 42,1 72,54 52,91 -54,-2 -101,-43 -125,-91 0,-1 0,-1 -1,-2z"/>
   <path class="fil10" d="M386 1033c-4,-4 -9,-9 -13,-14 8,6 16,11 23,16 31,20 60,42 92,61 24,14 50,30 79,30 79,1 110,-90 110,-164 7,14 12,29 15,45 10,50 -5,110 -51,133 -36,17 -78,7 -114,-9 -53,-23 -101,-56 -141,-98z"/>
   <path class="fil12" d="M405 1211c3,-21 3,-41 0,-61 0,-7 -1,-13 -2,-20 35,10 58,56 40,89 -13,-1 -26,-3 -38,-8 0,0 0,0 0,0z"/>
   <path class="fil13" d="M430 753c-7,3 -14,4 -21,4 7,-2 14,-3 21,-4z"/>
   <path class="fil13" d="M377 698c6,-23 25,-41 43,-57 59,-53 118,-105 176,-158l1 0c-3,-19 -6,-38 -9,-57 16,17 31,33 47,50 3,3 6,5 8,8l0 0c33,24 73,35 105,60 57,43 77,119 89,189 13,71 25,146 73,200 47,53 120,73 185,101 66,29 133,78 139,149 3,36 -11,73 -35,101 -24,28 -57,47 -92,60 -36,12 -79,17 -111,-3 -13,-9 -23,-20 -35,-29 -48,-35 -115,-23 -174,-34 -25,-5 -49,-14 -72,-23 -47,-18 -93,-35 -139,-53 -26,-10 -53,-21 -69,-43 -15,-21 -18,-47 -21,-72 -4,-46 -9,-93 4,-137 9,-30 25,-57 41,-83 29,-48 58,-96 87,-144 -54,-15 -115,-8 -165,18 -15,8 -31,18 -48,15 -24,-4 -35,-35 -28,-58z"/>
   <path class="fil14" d="M503 916c138,57 285,60 431,45 2,0 4,-1 5,-1 46,34 103,51 156,74 66,29 133,78 139,149 3,36 -11,73 -35,101 -24,28 -57,47 -92,60 -36,12 -79,17 -111,-3 -13,-9 -23,-20 -35,-29 -48,-35 -115,-23 -174,-34 -25,-5 -49,-14 -72,-23l-139 -53c-26,-10 -53,-21 -69,-43 -15,-21 -18,-47 -21,-72 -4,-46 -9,-93 4,-137 4,-12 8,-23 13,-34z"/>
   <path class="fil14" d="M629 545c6,11 13,22 19,34 5,9 2,15 -2,25 -16,35 -45,61 -78,79 -40,21 -83,22 -126,27 -23,2 -45,6 -66,13 -2,-8 -2,-17 1,-25 6,-23 25,-41 43,-57 59,-52 117,-105 176,-158 10,21 21,41 33,62z"/>
   <path class="fil14" d="M835 915c18,6 39,-12 25,-30 -14,-19 -57,-206 -80,-265 -14,-35 -33,-66 -57,-93 9,5 17,11 25,17 57,43 77,119 89,189 13,67 23,137 64,190 -73,6 -95,4 -167,-6 -13,-25 -128,-91 -129,-119 56,29 170,97 230,117z"/>
   <path class="fil14" d="M673 540c-2,-3 -3,-6 -5,-10 2,2 4,4 7,7 0,1 0,2 1,3 19,34 46,77 42,118 -4,40 -47,56 -68,86 -37,50 -36,113 -15,170 -38,-8 -75,-19 -112,-34 3,-4 5,-9 8,-13l87 -144c-9,-2 -18,-4 -28,-6 8,-4 16,-9 24,-14 34,-25 62,-59 75,-98 3,-11 6,-20 2,-31 -5,-12 -12,-23 -18,-34z"/>
   <path class="fil10" d="M957 1245c6,41 23,78 47,115 17,28 35,56 56,80 3,3 5,6 8,9 -34,-24 -64,-53 -89,-85 -12,-17 -23,-34 -28,-54 -5,-22 -1,-44 6,-65z"/>
   <path class="fil10" d="M1174 1282c0,1 0,2 0,2 -3,23 -12,44 -18,65 0,2 0,3 -1,4 0,-8 1,-16 3,-24 4,-16 9,-31 16,-47z"/>
   <g>
    <path class="fil13" d="M981 1194c-19,36 -39,76 -30,116 5,20 16,37 28,54 31,39 68,73 110,99 6,4 13,8 16,14 5,8 2,19 -1,27 -29,77 -135,114 -142,196 15,-5 30,-3 45,-6 15,-2 31,-11 34,-26 2,-7 -1,-15 3,-22 6,-13 23,-12 37,-9 15,-60 67,-102 111,-146 5,-5 10,-10 12,-17 7,-24 -25,-39 -41,-60 -13,-18 -12,-43 -7,-65 6,-21 15,-42 18,-65 4,-45 -21,-89 -56,-118 -16,-14 -36,-26 -58,-28 -22,-1 -46,10 -54,31l-25 25zm0 0l0 0 0 0z"/>
   </g>
   <path class="fil10" d="M1112 1490c-2,4 -5,8 -7,12 2,-5 3,-11 3,-16 1,1 2,3 4,4z"/>
   <path class="fil10" d="M1012 1647c32,-41 81,-65 114,-105 7,-9 14,-19 20,-29 13,-2 25,-17 14,-31 0,0 0,0 -1,0 7,-21 10,-43 6,-65 16,19 46,33 39,57 -2,7 -7,12 -12,17 -44,44 -96,86 -111,146 -14,-3 -31,-4 -37,9 -4,7 -1,15 -3,22 -3,15 -19,24 -34,26 -9,2 -19,2 -29,3 11,-17 21,-35 34,-50z"/>
   <path class="fil12" d="M1042 1656c0,4 0,8 -1,12 -3,15 -19,24 -34,26 -15,3 -30,1 -45,6 2,-23 12,-43 26,-61 17,8 35,14 54,17z"/>
   <g>
    <path class="fil13" d="M581 958c-30,33 -45,79 -40,124 -52,-15 -104,-31 -156,-46 -13,-4 -31,-6 -38,6 -3,6 -2,13 -1,20 10,53 20,108 47,154 28,47 78,84 132,82 17,-38 -17,-89 -59,-87 -8,1 -16,3 -24,0 -9,-4 -14,-15 -18,-25 -13,-35 -24,-70 -34,-106 25,0 45,20 64,37 43,38 93,68 148,87 37,12 80,20 114,0 44,-26 54,-87 41,-136 -9,-36 -29,-69 -58,-91 -30,-22 -69,-32 -104,-21l-14 2zm0 0l0 0 0 0z"/>
   </g>
   <path class="fil10" d="M392 1214c-7,-23 -14,-46 -19,-70 -4,-18 -8,-38 -7,-57 0,-2 1,-7 1,-10 1,0 2,0 2,1 7,0 14,2 21,4 10,35 22,70 34,104 4,10 9,21 18,25 8,3 16,1 24,0 42,-2 76,49 59,87 -54,2 -104,-35 -132,-82 0,0 0,-1 -1,-2z"/>
   <path class="fil10" d="M454 1117c-5,-4 -10,-9 -15,-13 9,5 17,9 25,14 32,17 63,37 96,54 25,12 53,25 82,24 78,-5 102,-98 97,-172 8,13 14,28 18,44 13,49 3,110 -41,136 -34,20 -77,12 -114,0 -55,-19 -105,-49 -148,-87z"/>
   <path class="fil12" d="M486 1292c1,-20 0,-41 -4,-61 -1,-6 -2,-12 -4,-19 36,7 62,51 47,86 -14,0 -27,-2 -39,-5 0,-1 0,-1 0,-1z"/>
   <g>
    <path class="fil15" d="M659 494c-13,-15 -19,-36 -15,-56 5,6 11,12 17,18 3,-6 7,-11 13,-15 6,17 26,25 43,32 56,26 98,77 124,133 27,56 42,117 57,177 16,61 33,121 66,174 -53,-15 -89,-64 -108,-115 -18,-51 -24,-106 -36,-159 -13,-53 -36,-107 -80,-139 -25,-18 -56,-28 -84,-45l3 -5zm0 0l0 0 0 0z"/>
   </g>
   <path class="fil16" d="M643 440c40,54 107,78 149,130 45,56 62,127 77,195 3,15 18,20 29,16 0,1 0,2 0,2 16,61 33,121 66,174 -53,-15 -89,-64 -108,-115 -18,-51 -24,-106 -36,-159 -13,-53 -36,-107 -80,-139 -25,-18 -56,-28 -84,-45l3 -5c-13,-14 -19,-35 -16,-54z"/>
   <g>
    <path class="fil15" d="M1217 1126c39,0 78,5 113,21 36,16 67,44 80,80 9,26 9,53 14,80 4,27 14,55 37,70 -14,5 -30,6 -44,3 12,19 24,38 37,57 11,17 22,35 26,55 7,32 -5,66 -27,91 -22,25 -51,41 -82,53 23,-25 34,-63 23,-95 -11,-28 -35,-47 -57,-67 -55,-50 -99,-126 -75,-196 5,-14 13,-28 14,-43 1,-15 -6,-32 -21,-35 4,11 5,24 3,36 -19,-5 -27,-29 -28,-48 -1,-20 1,-42 -10,-59l-3 -3zm0 0l0 0 0 0z"/>
   </g>
   <path class="fil16" d="M1217 1126c15,0 30,1 45,3 0,12 4,25 14,37 10,15 23,28 36,41 0,0 0,1 0,1 -3,22 -3,44 -2,67 0,21 -2,43 2,64 7,41 31,73 49,109 14,27 23,55 28,83 -12,-22 -33,-39 -52,-57 -55,-50 -99,-126 -75,-196 5,-14 13,-28 14,-43 1,-15 -6,-32 -21,-35 4,11 5,24 3,36 -19,-5 -27,-29 -28,-48 -1,-20 1,-42 -10,-59l-3 -3z"/>
   <g>
    <path class="fil17" d="M465 588c34,-28 67,-56 97,-88l6 1c0,-9 0,-17 -1,-26 28,34 52,69 74,106 -16,41 -48,76 -89,89 -40,14 -87,7 -123,29 -21,-9 -41,-19 -62,-28 33,-27 66,-55 98,-83zm49 -11c-6,6 -6,16 -1,22 6,6 16,6 22,0l-21 -22zm0 0l0 0 0 0z"/>
   </g>
   <path class="fil16" d="M465 588c30,-25 59,-50 87,-77 -3,5 -6,11 -10,16 -50,43 -96,92 -141,141 -7,3 -15,5 -23,8 -3,-1 -7,-3 -11,-5 33,-27 66,-55 98,-83z"/>
   <path class="fil16" d="M480 681c20,-9 40,-19 58,-30 31,-20 62,-45 69,-83 3,-14 2,-28 -1,-42 12,18 24,36 35,55 -16,41 -48,76 -89,89 -24,8 -50,9 -75,13 1,-1 2,-1 3,-2z"/>
   <path class="fil12" d="M537 596c4,-2 6,-6 7,-11 0,-4 -1,-9 -5,-12 -3,-4 -7,-5 -12,-5 -4,0 -8,2 -11,6 4,-3 8,-3 11,-3 4,0 7,2 9,5 3,2 4,6 5,9 0,4 -1,8 -4,11z"/>
   <path class="fil18" d="M535 566c0,0 0,0 0,0 1,0 1,-1 1,-1 0,0 1,0 1,0 1,1 1,1 2,1 1,0 1,0 2,1 0,0 0,0 1,0 0,0 0,0 0,1 0,0 0,0 0,1 0,0 0,0 1,0 -1,0 -1,1 -1,1 0,2 0,2 0,1 0,0 0,0 0,0 0,1 0,2 0,2 0,0 0,1 -1,1 -2,7 -8,12 -14,17l-4 -5c4,-6 8,-13 12,-20z"/>
   <path class="fil18" d="M397 684c-10,-4 -20,-8 -30,-13 33,-27 66,-55 98,-83 6,-5 13,-10 19,-15 0,0 0,0 0,0 -25,40 -55,76 -87,111z"/>
   <path class="fil19" d="M958 1006c5,1 10,2 15,3 -2,3 -2,7 -2,10 1,12 2,23 3,35 -5,-16 -10,-32 -16,-48z"/>
   <g>
    <path class="fil20" d="M1141 1052c-39,-22 -535,-96 -584,-245 -44,62 -88,123 -133,184 7,-16 33,-7 43,9 10,15 18,35 36,37 4,-8 8,-17 13,-26 16,34 16,74 21,111 10,66 41,128 87,175 8,-21 8,-45 2,-66 28,-12 61,21 50,48 -1,21 30,24 47,14 17,-11 34,-29 54,-25 28,5 31,47 53,65 13,11 31,12 47,12 56,1 111,-6 164,-21 -18,12 -5,44 16,49 22,5 43,-6 62,-16 20,-10 42,-20 62,-13 3,5 2,13 -3,17 30,7 51,-31 57,-62 16,-78 12,-173 -53,-219l-41 -28zm0 0l0 0 0 0z"/>
   </g>
   <path class="fil19" d="M693 1270c-19,-42 -32,-87 -44,-131 -11,-55 -23,-111 -24,-168 0,-4 -1,-7 -3,-10 1,-18 2,-36 4,-54 8,-2 12,-8 14,-14 3,1 6,3 8,4 8,125 22,250 45,373z"/>
   <path class="fil19" d="M445 963c5,3 12,3 19,-1 36,-20 78,-49 121,-55 -3,22 -4,45 -4,67 -25,50 -37,105 -42,162 0,-5 -1,-9 -2,-14 -5,-37 -5,-77 -21,-111 -5,9 -9,18 -13,26 -18,-2 -26,-22 -36,-37 -8,-13 -29,-22 -39,-14 6,-8 11,-15 17,-23z"/>
   <path class="fil19" d="M691 919c65,30 144,54 218,74 46,109 63,226 79,343 -15,3 -30,5 -45,7 -35,-86 -62,-174 -90,-262 -7,-20 -34,-14 -39,4 -18,65 -13,132 -16,198 -5,-7 -12,-13 -21,-15 -15,-3 -28,6 -40,15 -24,-120 -38,-242 -46,-364z"/>
   <path class="fil19" d="M1027 1155c-2,-21 -5,-42 -7,-63 5,10 9,21 13,31 -2,11 -4,21 -6,32z"/>
   <path class="fil19" d="M1063 1091c-1,-5 -4,-10 -6,-14 0,-3 -1,-5 -2,-8 -4,-7 -9,-14 -13,-21 -5,-9 -10,-17 -15,-26 7,2 14,4 21,6 96,56 177,186 104,290 -7,9 -5,19 0,26 -7,1 -14,4 -22,8 -20,-81 -37,-163 -53,-245 -1,-8 -7,-14 -14,-16z"/>
   <path class="fil21" d="M593 1061c11,69 30,137 37,207 0,10 -2,20 -6,29 -18,-18 -34,-39 -47,-62 -1,-58 2,-118 16,-174z"/>
   <path class="fil22" d="M1047 1348c3,-42 7,-85 12,-127 10,50 22,99 34,149 -12,4 -24,6 -36,3 -6,-2 -13,-6 -17,-12 4,-3 6,-7 7,-13z"/>
   <path class="fil22" d="M1182 1346c0,-1 1,-1 1,-1 68,-98 34,-211 -39,-290l38 25c65,46 69,141 53,219 -6,31 -27,69 -57,62 5,-4 6,-10 4,-15z"/>
   <path class="fil21" d="M490 901c22,-31 45,-62 67,-94 7,21 22,40 43,58 -39,0 -76,17 -110,36z"/>
   <path class="fil21" d="M836 1321c4,-47 3,-95 5,-142 18,56 37,112 59,166 -8,1 -15,1 -23,0 -16,0 -34,-1 -47,-12 0,0 0,0 0,0 4,-3 6,-7 6,-12z"/>
   <path class="fil20" d="M587 775c0,0 -49,35 -52,57 0,0 379,116 429,125l-27 -53 -350 -129z"/>
   <path class="fil23" d="M612 855c-46,-14 -77,-23 -77,-23 3,-22 52,-57 52,-57l41 15c-10,21 -15,43 -16,65z"/>
   <path class="fil23" d="M873 881l64 23 27 53c-11,-2 -38,-9 -73,-19 -6,-19 -12,-38 -18,-57z"/>
   <g>
    <path class="fil24" d="M1074 587c3,8 9,20 12,28 -19,5 -38,17 -57,22 -19,6 -38,12 -52,26 -2,2 2,-30 4,-34l93 -42zm0 0l0 0 0 0z"/>
   </g>
   <path class="fil24" d="M981 629l64 -25c-16,14 -50,31 -65,46 -8,3 3,6 -3,13 -2,2 2,-30 4,-34z"/>
   <g>
    <path class="fil24" d="M977 653c-15,25 -58,31 -64,60 -2,8 0,15 1,23 10,56 25,111 44,164 64,-20 123,-53 174,-97 5,-5 11,-10 15,-16 13,-21 5,-48 -4,-72 -13,-36 -27,-74 -53,-102l-113 40zm0 0l0 0 0 0z"/>
   </g>
   <path class="fil24" d="M938 778c44,-52 87,-105 130,-158l22 -7c26,28 40,66 53,102 9,24 17,51 4,72 -4,6 -10,11 -15,16 -51,44 -110,77 -174,97 -13,-38 -25,-76 -34,-115 5,-1 10,-3 14,-7z"/>
   <g>
    <path class="fil25" d="M1175 670c-44,25 -112,85 -125,83 -2,0 -3,3 -5,3 -4,1 -7,-3 -10,-7 -17,-28 -20,-64 -5,-94 14,-29 47,-49 80,-47 32,3 62,29 67,61l-2 1zm0 0l0 0 0 0z"/>
   </g>
   <path class="fil26" d="M1065 634c13,5 30,11 35,26 5,15 -3,36 -11,50 -10,19 -27,34 -45,46 -4,0 -7,-3 -9,-7 -17,-28 -20,-64 -5,-94 6,-12 15,-22 26,-30 1,4 5,7 9,9z"/>
   <path class="fil16" d="M1134 635c-7,-12 -17,-20 -28,-27 1,0 2,0 4,0 32,3 62,29 67,61l-2 1c-11,6 -24,15 -37,24 5,-20 6,-41 -4,-59z"/>
   <g>
    <path class="fil27" d="M1153 678c13,21 26,42 40,63 1,3 3,6 3,9 0,3 -2,5 -3,7 -21,29 -52,51 -87,61 -16,-23 -33,-45 -52,-64l99 -76zm0 0l0 0 0 0z"/>
   </g>
   <path class="fil26" d="M1193 757c-2,3 -4,6 -7,8 -7,-5 -14,-10 -20,-17 -21,-21 -20,-43 -14,-70l1 0c13,21 26,42 40,63 1,3 3,6 3,9 0,3 -2,5 -3,7z"/>
   <path class="fil24" d="M1103 758c-8,8 -17,15 -26,22 -7,-9 -15,-18 -23,-26l94 -73c-4,29 -27,59 -45,77z"/>
   <g>
    <path class="fil25" d="M1191 751c7,8 19,9 28,15 12,7 18,22 14,36 -4,12 -15,21 -26,28 -21,15 -43,29 -68,35 -25,6 -53,4 -74,-11 24,-17 48,-34 72,-50 20,-14 40,-29 55,-48l-1 -5zm0 0l0 0 0 0z"/>
   </g>
   <path class="fil24" d="M1204 759c5,2 10,4 15,7 12,7 18,22 14,36 -4,12 -15,21 -26,28 -1,1 -2,2 -4,3 11,-23 13,-52 1,-74z"/>
   <g>
    <path class="fil24" d="M865 880c-35,16 -71,32 -106,49 -15,6 -32,16 -34,32 -2,7 1,15 3,22 8,22 17,42 27,62 1,2 2,4 4,5 3,2 7,2 10,2 20,-2 39,-4 59,-6 3,0 7,-1 9,-3 2,-2 2,-5 2,-8 7,-50 13,-101 20,-151l6 -4zm0 0l0 0 0 0z"/>
   </g>
   <path class="fil27" d="M747 981c-5,4 -10,7 -16,10 -1,-2 -2,-5 -3,-8 -2,-7 -5,-15 -3,-22 2,-17 19,-26 34,-32 5,-3 10,-5 15,-7 2,22 -7,42 -27,59z"/>
   <path class="fil24" d="M813 904c17,-8 35,-16 52,-24l-6 4c-7,50 -13,101 -20,151 0,3 0,6 -2,8 -2,2 -6,3 -9,3 -20,2 -39,4 -59,6 -3,0 -7,0 -10,-2 -2,-1 -3,-3 -4,-5 -3,-6 -6,-11 -8,-17 46,-25 79,-70 66,-124z"/>
   <g>
    <path class="fil25" d="M754 1049c9,66 17,132 25,198 0,2 1,4 2,5 2,2 4,1 6,1 14,-2 27,-5 41,-8 3,0 7,-1 10,-4 2,-1 3,-4 5,-6 14,-32 25,-65 34,-98 5,-20 9,-41 7,-61 -2,-20 -10,-41 -27,-53l-103 26zm0 0l0 0 0 0z"/>
   </g>
   <path class="fil28" d="M867 1173c-36,-42 -72,-84 -110,-124l100 -26c17,12 25,33 27,53 2,20 -2,41 -7,61 -3,12 -7,24 -10,36z"/>
   <path class="fil26" d="M774 1209c-6,-53 -13,-107 -20,-160l38 -9c25,56 10,114 -18,169z"/>
   <path class="fil16" d="M833 1176c17,-50 17,-100 -1,-146l25 -7c17,12 25,33 27,53 2,20 -2,41 -7,61 -9,33 -20,66 -34,98 -2,2 -3,5 -5,6 -3,3 -7,4 -10,4 -10,2 -20,4 -30,6 14,-24 26,-49 35,-75z"/>
   <g>
    <path class="fil24" d="M772 1253c-6,49 -26,95 -57,129 10,8 23,7 33,3 29,-10 52,-32 65,-60 3,-6 5,-11 9,-15 9,-12 27,-10 40,-17 2,-1 4,-2 5,-5 1,-2 0,-5 -2,-8 -5,-11 -11,-23 -18,-33 -2,-3 -4,-6 -7,-8 -3,-2 -7,-1 -11,-1 -19,3 -38,5 -56,7l-1 8zm0 0l0 0 0 0z"/>
   </g>
   <path class="fil24" d="M769 1271c1,-6 2,-12 3,-18l1 -8c7,-1 14,-1 21,-2 -5,10 -15,19 -25,28z"/>
   <path class="fil24" d="M732 1361c21,-12 37,-26 53,-48 18,-26 50,-42 53,-75 1,1 2,1 2,1 3,2 5,5 7,8 7,10 13,22 18,33 2,3 3,6 2,8 -1,3 -3,4 -5,5 -13,7 -31,5 -40,17 -4,4 -6,9 -9,15 -13,28 -36,50 -65,60 -10,4 -23,5 -33,-4 6,-6 12,-13 17,-20z"/>
   <g>
    <path class="fil12" d="M1053 750c-24,16 -54,21 -82,17 -28,-3 -55,-13 -81,-25 -21,77 -37,155 -53,232 -4,18 -8,35 -7,53 0,44 25,84 51,120 19,28 40,54 61,80 23,-4 42,-15 62,-27 46,-30 94,-62 123,-109 18,-31 27,-66 35,-101 8,-36 15,-73 21,-110 4,-21 8,-43 12,-65 -53,2 -107,-23 -140,-66l-2 1zm0 0l0 0 0 0z"/>
   </g>
   <path class="fil5" d="M1161 842l-6 33c-6,36 -13,73 -21,109 -7,30 -15,64 -32,92 -25,42 -68,71 -114,99 -13,8 -24,15 -35,20 -17,-21 -34,-43 -49,-65 -27,-38 -45,-70 -46,-103 0,-15 3,-30 7,-47 13,-65 27,-133 44,-199 18,7 38,13 59,15 12,1 24,1 35,0 16,-1 31,-5 45,-11 31,30 71,51 113,57z"/>
   <path class="fil29" d="M1045 1048c46,-64 61,-140 80,-215 12,4 24,7 36,9l-6 33c-6,36 -13,73 -21,109 -7,30 -15,64 -32,92 -25,42 -68,71 -114,99 -13,8 -24,15 -35,20 -10,-12 -19,-23 -27,-35 44,-32 87,-67 119,-112z"/>
   <path class="fil6" d="M866 973c6,-26 11,-51 16,-77 37,9 73,17 110,25 9,-41 16,-83 19,-126 13,-1 26,-5 37,-10 11,11 24,21 37,29 -8,41 -18,81 -28,121 28,5 56,9 84,15 -2,11 -5,23 -7,34 -3,13 -6,27 -11,41 -14,-3 -28,-6 -43,-8 -14,-3 -28,-6 -43,-10 -16,58 -33,115 -53,171 -11,7 -21,13 -31,17 -12,-15 -24,-30 -35,-45 20,-52 39,-103 55,-156 -36,-7 -71,-14 -107,-21z"/>
   <path class="fil30" d="M1052 788c10,10 21,19 33,26 -8,41 -18,81 -28,121 28,5 56,9 84,15 -2,11 -5,23 -7,34 -3,13 -6,27 -11,41 -14,-3 -28,-6 -43,-8 -14,-3 -28,-6 -43,-10 -16,58 -33,115 -53,171 -11,7 -21,13 -31,17 -6,-8 -12,-15 -18,-23 56,-123 103,-249 117,-384z"/>
   <g>
    <path class="fil31" d="M1034 467c0,-4 10,-11 13,-11 4,-1 8,0 11,2 5,2 10,5 14,7 3,2 5,4 6,7 3,7 -3,14 -8,18l-36 -23zm0 0l0 0 0 0z"/>
   </g>
   <g>
    <path class="fil6" d="M1061 459c3,-18 10,-36 22,-50 2,-2 4,-5 7,-5 4,-1 7,3 9,7 1,4 0,8 -1,12 9,-17 22,-32 37,-44 2,10 1,21 -2,30 13,-16 35,-26 56,-25 2,0 4,0 5,1 2,1 2,3 3,5 2,11 -6,22 -15,29 0,0 -16,12 -23,15 -6,3 -14,4 -14,10 0,4 5,7 9,9 3,2 7,7 4,10 -1,1 -3,1 -5,1 -10,1 -21,-1 -30,-5 3,3 6,7 7,11 1,1 1,2 0,3 0,1 -1,1 -3,2 -15,3 -32,-2 -47,-6l-19 -10zm0 0l0 0 0 0z"/>
   </g>
   <path class="fil32" d="M1066 462c2,1 4,2 6,3 3,2 5,4 6,7 3,7 -3,14 -8,18l-25 -16c7,-4 14,-8 21,-12z"/>
   <path class="fil33" d="M1197 394c0,10 -7,19 -15,25 0,0 -16,12 -23,15 -6,3 -14,4 -14,10 0,4 5,7 9,9 3,2 7,7 4,10 -1,1 -3,1 -5,1 -10,1 -21,-1 -30,-5 3,3 6,7 7,11 1,1 1,2 0,3 0,1 -1,1 -3,2 -15,3 -32,-2 -47,-6l-14 -7c43,-24 87,-46 131,-68z"/>
   <g>
    <path class="fil27" d="M952 499c19,-33 67,-46 100,-26 7,4 13,10 17,17 8,14 7,32 3,48 -1,6 -2,12 -1,18 3,12 15,19 25,25 -33,15 -67,31 -101,46 -1,1 -2,1 -3,1 -1,0 -2,-2 -2,-3 -17,-39 -31,-81 -41,-123l3 -3zm0 0l0 0 0 0z"/>
   </g>
   <path class="fil26" d="M964 503c-6,0 -10,2 -13,6 -1,-3 -1,-5 -2,-7l3 -3c13,-24 41,-37 68,-35 -5,22 -33,37 -56,39z"/>
   <path class="fil34" d="M1039 514c11,-11 15,-25 15,-40 6,4 12,10 15,16 8,14 7,32 3,48 -1,5 -2,10 -1,15 -23,20 -40,43 -59,67 -6,2 -11,5 -17,7 -1,1 -2,1 -3,1 -1,0 -2,-2 -2,-3 -13,-30 -24,-61 -33,-93 28,8 60,5 82,-18z"/>
   <g>
    <path class="fil35" d="M1026 548c-28,-20 -58,-38 -89,-54 -6,24 -16,46 -28,67 8,-2 16,-4 23,-7 -6,5 -7,14 -5,21 2,8 7,14 11,20 4,6 8,11 12,17 2,2 4,5 4,8 1,2 0,5 0,7 -2,8 -4,17 -6,25 23,-3 43,-19 55,-39 12,-20 18,-43 23,-65l0 0zm0 0l0 0 0 0z"/>
   </g>
   <path class="fil36" d="M998 530c10,6 19,12 28,18l0 0c-3,13 -7,27 -11,40 -3,-20 -8,-40 -17,-58z"/>
   <path class="fil37" d="M960 643c-2,3 -3,5 -3,7 -3,1 -6,2 -9,2l6 -25c0,-2 1,-5 0,-7 0,-3 -2,-6 -4,-8l-12 -17c-2,-3 -4,-6 -6,-10 2,2 6,4 9,4 20,14 36,30 19,54z"/>
   <path class="fil36" d="M940 504c-4,18 -8,35 -12,52 -7,2 -13,3 -19,5 12,-21 22,-43 28,-67 2,1 4,2 6,4 -1,2 -2,4 -3,6z"/>
   <path class="fil27" d="M1020 572c-4,14 -10,28 -17,41 -12,20 -32,36 -55,39l1 -4c30,-20 53,-44 71,-76z"/>
   <path class="fil27" d="M937 507c-2,0 -3,1 -4,2 1,-5 3,-10 4,-15 6,3 12,7 18,10 -6,-2 -12,-1 -18,3z"/>
   <path class="fil27" d="M930 556c4,-1 7,-3 11,-5 13,-3 26,-7 39,-10 -15,16 -31,31 -48,45 -2,-3 -4,-7 -5,-11 -2,-6 -1,-14 3,-19z"/>
   <path class="fil24" d="M990 537c-21,15 -41,28 -62,41 0,-1 -1,-2 -1,-3 -2,-7 -1,-15 4,-20 19,-7 38,-15 56,-22 0,0 0,0 1,0 0,1 1,1 1,1 0,0 0,0 0,0 0,0 0,0 0,1 0,1 0,1 1,2z"/>
  </g>
 </g>
</svg>
