<?xml version="1.0" encoding="UTF-8"?>
<!DOCTYPE svg PUBLIC "-//W3C//DTD SVG 1.1//EN" "http://www.w3.org/Graphics/SVG/1.1/DTD/svg11.dtd">
<!-- Creator: CorelDRAW X7 -->
<svg xmlns="http://www.w3.org/2000/svg" xml:space="preserve" width="2409px" height="2409px" version="1.1" style="shape-rendering:geometricPrecision; text-rendering:geometricPrecision; image-rendering:optimizeQuality; fill-rule:evenodd; clip-rule:evenodd"
viewBox="0 0 2409 2409"
 xmlns:xlink="http://www.w3.org/1999/xlink">
 <defs>
  <style type="text/css">
   <![CDATA[
    .fil0 {fill:#FEFEFE;fill-opacity:0.121569}
    .fil1 {fill:#FEFEFE;fill-rule:nonzero;fill-opacity:0.121569}
   ]]>
  </style>
 </defs>
 <g id="Layer_x0020_1">
  <metadata id="CorelCorpID_0Corel-Layer"/>
  <g id="_2247966228208">
   <path class="fil0" d="M1204 70c274,0 525,97 721,259l112 -111 154 154 -111 112c162,196 259,447 259,720 0,20 -1,39 -2,59 -17,11 -33,24 -48,39 -50,54 -76,128 -76,223 0,56 9,104 26,145 -177,394 -574,669 -1035,669 -273,0 -524,-97 -720,-259l-112 111 -154 -154 111 -112c-162,-196 -259,-447 -259,-721 0,-626 508,-1134 1134,-1134zm0 219c506,0 916,410 916,915 0,506 -410,916 -916,916 -505,0 -915,-410 -915,-916 0,-505 410,-915 915,-915z"/>
   <path class="fil1" d="M633 1015l319 0c63,0 110,3 141,8 31,6 59,16 84,33 24,17 45,39 61,66 16,28 24,59 24,94 0,37 -10,71 -30,102 -20,31 -47,54 -81,70 48,14 85,38 111,73 26,34 39,74 39,120 0,36 -8,72 -25,106 -17,34 -40,62 -69,82 -29,21 -65,33 -108,38 -27,3 -92,5 -194,6l-272 0 0 -798zm162 133l0 184 105 0c63,0 102,-1 117,-3 27,-3 49,-13 65,-29 16,-15 23,-36 23,-62 0,-24 -7,-44 -20,-60 -14,-15 -34,-24 -61,-27 -16,-2 -61,-3 -137,-3l-92 0zm0 316l0 214 149 0c58,0 95,-2 110,-5 24,-4 44,-15 59,-32 15,-17 22,-39 22,-68 0,-24 -5,-44 -17,-61 -12,-17 -28,-29 -50,-36 -22,-8 -70,-12 -143,-12l-130 0zm575 349l0 -798 153 0 0 798 -153 0zm357 -400l-138 -25c16,-56 43,-98 81,-125 38,-27 95,-41 170,-41 68,0 119,8 152,25 33,16 57,36 70,61 14,25 21,70 21,137l-3 178c0,51 3,88 8,112 5,24 14,50 27,78l-151 0c-4,-10 -9,-25 -15,-45 -3,-9 -4,-15 -6,-18 -25,26 -53,45 -83,58 -30,13 -61,19 -95,19 -59,0 -106,-16 -140,-48 -34,-32 -51,-73 -51,-123 0,-32 8,-61 23,-87 16,-25 37,-45 66,-58 28,-14 68,-26 121,-36 71,-13 121,-26 148,-38l0 -15c0,-30 -7,-51 -21,-64 -15,-12 -42,-19 -83,-19 -27,0 -48,6 -63,17 -16,10 -28,30 -38,57zm205 123c-19,7 -50,15 -93,24 -42,9 -70,18 -83,26 -20,15 -30,33 -30,54 0,22 8,40 24,56 16,15 36,23 61,23 28,0 54,-9 79,-27 18,-14 31,-31 36,-51 4,-13 6,-38 6,-74l0 -31z"/>
  </g>
 </g>
</svg>
